<?xml version="1.0" encoding="UTF-8" standalone="no"?>
<!DOCTYPE svg PUBLIC "-//W3C//DTD SVG 1.1//EN"
 "http://www.w3.org/Graphics/SVG/1.1/DTD/svg11.dtd">
<!-- Generated by graphviz version 2.43.0 (0)
 -->
<!-- Title: BehaviourLogic Pages: 1 -->
<svg width="1065pt" height="480pt"
 viewBox="0.00 0.00 1064.85 480.00" xmlns="http://www.w3.org/2000/svg" xmlns:xlink="http://www.w3.org/1999/xlink">
<g id="graph0" class="graph" transform="scale(1 1) rotate(0) translate(4 476)">
<title>BehaviourLogic</title>
<polygon fill="white" stroke="transparent" points="-4,4 -4,-476 1060.85,-476 1060.85,4 -4,4"/>
<text text-anchor="middle" x="528.43" y="-452" font-family="WenQuanYi Zen Hei" font-size="20.00">图3 &#160;六类课堂行为状态映射与报警判定逻辑</text>
<g id="clust1" class="cluster">
<title>cluster_normal</title>
<path fill="#eaf3e0" stroke="#548235" d="M494.43,-206C494.43,-206 597.43,-206 597.43,-206 603.43,-206 609.43,-212 609.43,-218 609.43,-218 609.43,-384 609.43,-384 609.43,-390 603.43,-396 597.43,-396 597.43,-396 494.43,-396 494.43,-396 488.43,-396 482.43,-390 482.43,-384 482.43,-384 482.43,-218 482.43,-218 482.43,-212 488.43,-206 494.43,-206"/>
<text text-anchor="middle" x="541.93" y="-381.6" font-family="WenQuanYi Zen Hei" font-size="13.00">正常状态（绿框）</text>
</g>
<g id="clust2" class="cluster">
<title>cluster_abnormal</title>
<path fill="#fbe5e0" stroke="#c00000" d="M474.93,-8C474.93,-8 616.93,-8 616.93,-8 622.93,-8 628.93,-14 628.93,-20 628.93,-20 628.93,-186 628.93,-186 628.93,-192 622.93,-198 616.93,-198 616.93,-198 474.93,-198 474.93,-198 468.93,-198 462.93,-192 462.93,-186 462.93,-186 462.93,-20 462.93,-20 462.93,-14 468.93,-8 474.93,-8"/>
<text text-anchor="middle" x="522.43" y="-183.6" font-family="WenQuanYi Zen Hei" font-size="13.00">异常状态（红框）</text>
</g>
<!-- det -->
<g id="node1" class="node">
<title>det</title>
<path fill="#d7e8c4" stroke="#548235" d="M163,-251C163,-251 12,-251 12,-251 6,-251 0,-245 0,-239 0,-239 0,-225 0,-225 0,-219 6,-213 12,-213 12,-213 163,-213 163,-213 169,-213 175,-219 175,-225 175,-225 175,-239 175,-239 175,-245 169,-251 163,-251"/>
<text text-anchor="middle" x="87.5" y="-235.4" font-family="WenQuanYi Zen Hei" font-size="12.00">YOLOv8 单帧检测结果</text>
<text text-anchor="middle" x="87.5" y="-222.4" font-family="WenQuanYi Zen Hei" font-size="12.00">（标签 + 置信度 + 检测框）</text>
</g>
<!-- conf -->
<g id="node2" class="node">
<title>conf</title>
<polygon fill="#ffe599" stroke="black" points="317.47,-268 230.03,-232 317.47,-196 404.9,-232 317.47,-268"/>
<text text-anchor="middle" x="317.47" y="-228.9" font-family="WenQuanYi Zen Hei" font-size="12.00">置信度 ≥ 0.35？</text>
</g>
<!-- det&#45;&gt;conf -->
<g id="edge1" class="edge">
<title>det&#45;&gt;conf</title>
<path fill="none" stroke="#555555" d="M175.01,-232C189.64,-232 204.92,-232 219.8,-232"/>
<polygon fill="#555555" stroke="#555555" points="220.02,-235.5 230.02,-232 220.02,-228.5 220.02,-235.5"/>
</g>
<!-- ignore -->
<g id="node3" class="node">
<title>ignore</title>
<path fill="#e2e2e2" stroke="#7f7f7f" d="M594.93,-442C594.93,-442 496.93,-442 496.93,-442 490.93,-442 484.93,-436 484.93,-430 484.93,-430 484.93,-416 484.93,-416 484.93,-410 490.93,-404 496.93,-404 496.93,-404 594.93,-404 594.93,-404 600.93,-404 606.93,-410 606.93,-416 606.93,-416 606.93,-430 606.93,-430 606.93,-436 600.93,-442 594.93,-442"/>
<text text-anchor="middle" x="545.93" y="-426.4" font-family="WenQuanYi Zen Hei" font-size="12.00">忽略</text>
<text text-anchor="middle" x="545.93" y="-413.4" font-family="WenQuanYi Zen Hei" font-size="12.00">灰框 / 不参与报警</text>
</g>
<!-- conf&#45;&gt;ignore -->
<g id="edge2" class="edge">
<title>conf&#45;&gt;ignore</title>
<path fill="none" stroke="#555555" d="M335.44,-260.63C359.22,-298.24 405.99,-363.74 462.93,-400 466.93,-402.55 471.21,-404.82 475.65,-406.84"/>
<polygon fill="#555555" stroke="#555555" points="474.34,-410.08 484.92,-410.65 477,-403.61 474.34,-410.08"/>
<text text-anchor="middle" x="437.93" y="-389.2" font-family="WenQuanYi Zen Hei" font-size="11.00">否</text>
</g>
<!-- n1 -->
<g id="node4" class="node">
<title>n1</title>
<path fill="#c6e0b4" stroke="black" d="M589.43,-366C589.43,-366 502.43,-366 502.43,-366 496.43,-366 490.43,-360 490.43,-354 490.43,-354 490.43,-342 490.43,-342 490.43,-336 496.43,-330 502.43,-330 502.43,-330 589.43,-330 589.43,-330 595.43,-330 601.43,-336 601.43,-342 601.43,-342 601.43,-354 601.43,-354 601.43,-360 595.43,-366 589.43,-366"/>
<text text-anchor="middle" x="545.93" y="-344.9" font-family="WenQuanYi Zen Hei" font-size="12.00">Hand&#45;raise 举手</text>
</g>
<!-- conf&#45;&gt;n1 -->
<g id="edge3" class="edge">
<title>conf&#45;&gt;n1</title>
<path fill="none" stroke="#548235" d="M351.26,-254.38C379.87,-273.25 422.95,-300.13 462.93,-319 468.58,-321.66 474.54,-324.23 480.57,-326.65"/>
<polygon fill="#548235" stroke="#548235" points="479.47,-329.97 490.06,-330.33 482,-323.45 479.47,-329.97"/>
<text text-anchor="middle" x="437.93" y="-311.2" font-family="WenQuanYi Zen Hei" font-size="11.00">是</text>
</g>
<!-- n2 -->
<g id="node5" class="node">
<title>n2</title>
<path fill="#c6e0b4" stroke="black" d="M581.93,-308C581.93,-308 509.93,-308 509.93,-308 503.93,-308 497.93,-302 497.93,-296 497.93,-296 497.93,-284 497.93,-284 497.93,-278 503.93,-272 509.93,-272 509.93,-272 581.93,-272 581.93,-272 587.93,-272 593.93,-278 593.93,-284 593.93,-284 593.93,-296 593.93,-296 593.93,-302 587.93,-308 581.93,-308"/>
<text text-anchor="middle" x="545.93" y="-286.9" font-family="WenQuanYi Zen Hei" font-size="12.00">Reading 看书</text>
</g>
<!-- conf&#45;&gt;n2 -->
<g id="edge4" class="edge">
<title>conf&#45;&gt;n2</title>
<path fill="none" stroke="#548235" d="M371.85,-245.67C406.75,-254.61 452.3,-266.28 487.91,-275.4"/>
<polygon fill="#548235" stroke="#548235" points="487.12,-278.81 497.68,-277.9 488.86,-272.03 487.12,-278.81"/>
</g>
<!-- n3 -->
<g id="node6" class="node">
<title>n3</title>
<path fill="#c6e0b4" stroke="black" d="M577.93,-250C577.93,-250 513.93,-250 513.93,-250 507.93,-250 501.93,-244 501.93,-238 501.93,-238 501.93,-226 501.93,-226 501.93,-220 507.93,-214 513.93,-214 513.93,-214 577.93,-214 577.93,-214 583.93,-214 589.93,-220 589.93,-226 589.93,-226 589.93,-238 589.93,-238 589.93,-244 583.93,-250 577.93,-250"/>
<text text-anchor="middle" x="545.93" y="-228.9" font-family="WenQuanYi Zen Hei" font-size="12.00">Writing 写字</text>
</g>
<!-- conf&#45;&gt;n3 -->
<g id="edge5" class="edge">
<title>conf&#45;&gt;n3</title>
<path fill="none" stroke="#548235" d="M405.05,-232C434.14,-232 465.71,-232 491.48,-232"/>
<polygon fill="#548235" stroke="#548235" points="491.78,-235.5 501.78,-232 491.78,-228.5 491.78,-235.5"/>
</g>
<!-- a1 -->
<g id="node7" class="node">
<title>a1</title>
<path fill="#f8cbad" stroke="black" d="M608.93,-168C608.93,-168 482.93,-168 482.93,-168 476.93,-168 470.93,-162 470.93,-156 470.93,-156 470.93,-144 470.93,-144 470.93,-138 476.93,-132 482.93,-132 482.93,-132 608.93,-132 608.93,-132 614.93,-132 620.93,-138 620.93,-144 620.93,-144 620.93,-156 620.93,-156 620.93,-162 614.93,-168 608.93,-168"/>
<text text-anchor="middle" x="545.93" y="-146.9" font-family="WenQuanYi Zen Hei" font-size="12.00">Useing&#45;Phone 使用手机</text>
</g>
<!-- conf&#45;&gt;a1 -->
<g id="edge6" class="edge">
<title>conf&#45;&gt;a1</title>
<path fill="none" stroke="#c00000" d="M364.57,-215.31C399.35,-202.71 447.36,-185.33 485.11,-171.66"/>
<polygon fill="#c00000" stroke="#c00000" points="486.75,-174.79 494.96,-168.09 484.37,-168.21 486.75,-174.79"/>
</g>
<!-- a2 -->
<g id="node8" class="node">
<title>a2</title>
<path fill="#f8cbad" stroke="black" d="M590.43,-110C590.43,-110 501.43,-110 501.43,-110 495.43,-110 489.43,-104 489.43,-98 489.43,-98 489.43,-86 489.43,-86 489.43,-80 495.43,-74 501.43,-74 501.43,-74 590.43,-74 590.43,-74 596.43,-74 602.43,-80 602.43,-86 602.43,-86 602.43,-98 602.43,-98 602.43,-104 596.43,-110 590.43,-110"/>
<text text-anchor="middle" x="545.93" y="-88.9" font-family="WenQuanYi Zen Hei" font-size="12.00">Head&#45;down 低头</text>
</g>
<!-- conf&#45;&gt;a2 -->
<g id="edge7" class="edge">
<title>conf&#45;&gt;a2</title>
<path fill="none" stroke="#c00000" d="M345.16,-207.3C372.86,-182.71 418.32,-145.23 462.93,-121 468.33,-118.07 474.09,-115.34 479.95,-112.81"/>
<polygon fill="#c00000" stroke="#c00000" points="481.28,-116.05 489.21,-109.02 478.63,-109.57 481.28,-116.05"/>
</g>
<!-- a3 -->
<g id="node9" class="node">
<title>a3</title>
<path fill="#f8cbad" stroke="black" d="M583.43,-52C583.43,-52 508.43,-52 508.43,-52 502.43,-52 496.43,-46 496.43,-40 496.43,-40 496.43,-28 496.43,-28 496.43,-22 502.43,-16 508.43,-16 508.43,-16 583.43,-16 583.43,-16 589.43,-16 595.43,-22 595.43,-28 595.43,-28 595.43,-40 595.43,-40 595.43,-46 589.43,-52 583.43,-52"/>
<text text-anchor="middle" x="545.93" y="-30.9" font-family="WenQuanYi Zen Hei" font-size="12.00">Sleeping 睡觉</text>
</g>
<!-- conf&#45;&gt;a3 -->
<g id="edge8" class="edge">
<title>conf&#45;&gt;a3</title>
<path fill="none" stroke="#c00000" d="M335.98,-203.43C360.19,-166.17 407.25,-101.24 462.93,-63 470.17,-58.03 478.35,-53.82 486.66,-50.29"/>
<polygon fill="#c00000" stroke="#c00000" points="488.05,-53.5 496.07,-46.58 485.49,-46.99 488.05,-53.5"/>
</g>
<!-- dur -->
<g id="node10" class="node">
<title>dur</title>
<polygon fill="#ffe599" stroke="black" points="757.39,-131.5 675.97,-92 757.39,-52.5 838.81,-92 757.39,-131.5"/>
<text text-anchor="middle" x="757.39" y="-95.4" font-family="WenQuanYi Zen Hei" font-size="12.00">同一异常类别</text>
<text text-anchor="middle" x="757.39" y="-82.4" font-family="WenQuanYi Zen Hei" font-size="12.00">连续 ≥ 3 秒？</text>
</g>
<!-- a1&#45;&gt;dur -->
<g id="edge9" class="edge">
<title>a1&#45;&gt;dur</title>
<path fill="none" stroke="#555555" d="M612.06,-131.97C638.57,-124.62 669.06,-116.18 695.17,-108.95"/>
<polygon fill="#555555" stroke="#555555" points="696.23,-112.29 704.94,-106.25 694.37,-105.54 696.23,-112.29"/>
</g>
<!-- a2&#45;&gt;dur -->
<g id="edge10" class="edge">
<title>a2&#45;&gt;dur</title>
<path fill="none" stroke="#555555" d="M602.51,-92C621.87,-92 644.12,-92 665.58,-92"/>
<polygon fill="#555555" stroke="#555555" points="665.7,-95.5 675.7,-92 665.7,-88.5 665.7,-95.5"/>
</g>
<!-- a3&#45;&gt;dur -->
<g id="edge11" class="edge">
<title>a3&#45;&gt;dur</title>
<path fill="none" stroke="#555555" d="M595.51,-47.45C625.3,-55.7 663.7,-66.33 695.51,-75.14"/>
<polygon fill="#555555" stroke="#555555" points="694.58,-78.52 705.15,-77.81 696.45,-71.77 694.58,-78.52"/>
</g>
<!-- susp -->
<g id="node11" class="node">
<title>susp</title>
<path fill="#fff2cc" stroke="#bf9000" d="M1033.85,-141C1033.85,-141 927.85,-141 927.85,-141 921.85,-141 915.85,-135 915.85,-129 915.85,-129 915.85,-115 915.85,-115 915.85,-109 921.85,-103 927.85,-103 927.85,-103 1033.85,-103 1033.85,-103 1039.85,-103 1045.85,-109 1045.85,-115 1045.85,-115 1045.85,-129 1045.85,-129 1045.85,-135 1039.85,-141 1033.85,-141"/>
<text text-anchor="middle" x="980.85" y="-125.4" font-family="WenQuanYi Zen Hei" font-size="12.00">疑似（suspicious）</text>
<text text-anchor="middle" x="980.85" y="-112.4" font-family="WenQuanYi Zen Hei" font-size="12.00">顶部提示，不报警</text>
</g>
<!-- dur&#45;&gt;susp -->
<g id="edge12" class="edge">
<title>dur&#45;&gt;susp</title>
<path fill="none" stroke="#555555" d="M821.26,-100.52C847.57,-104.08 878.34,-108.25 905.75,-111.96"/>
<polygon fill="#555555" stroke="#555555" points="905.29,-115.43 915.67,-113.31 906.23,-108.49 905.29,-115.43"/>
<text text-anchor="middle" x="871.85" y="-110.2" font-family="WenQuanYi Zen Hei" font-size="11.00">否</text>
</g>
<!-- alarm -->
<g id="node12" class="node">
<title>alarm</title>
<path fill="#ff9999" stroke="#c00000" stroke-width="1.6" d="M1044.85,-81C1044.85,-81 916.85,-81 916.85,-81 910.85,-81 904.85,-75 904.85,-69 904.85,-69 904.85,-55 904.85,-55 904.85,-49 910.85,-43 916.85,-43 916.85,-43 1044.85,-43 1044.85,-43 1050.85,-43 1056.85,-49 1056.85,-55 1056.85,-55 1056.85,-69 1056.85,-69 1056.85,-75 1050.85,-81 1044.85,-81"/>
<text text-anchor="middle" x="980.85" y="-65.4" font-family="WenQuanYi Zen Hei" font-size="12.00">触发报警 ALARM</text>
<text text-anchor="middle" x="980.85" y="-52.4" font-family="WenQuanYi Zen Hei" font-size="12.00">红框 + 截图 + CSV 日志</text>
</g>
<!-- dur&#45;&gt;alarm -->
<g id="edge13" class="edge">
<title>dur&#45;&gt;alarm</title>
<path fill="none" stroke="#555555" d="M821.26,-83.48C844.08,-80.39 870.25,-76.85 894.67,-73.54"/>
<polygon fill="#555555" stroke="#555555" points="895.21,-77 904.65,-72.19 894.27,-70.06 895.21,-77"/>
<text text-anchor="middle" x="871.85" y="-80.2" font-family="WenQuanYi Zen Hei" font-size="11.00">是</text>
</g>
</g>
</svg>
