<?xml version="1.0" encoding="UTF-8" standalone="no"?>
<!DOCTYPE svg PUBLIC "-//W3C//DTD SVG 1.1//EN"
 "http://www.w3.org/Graphics/SVG/1.1/DTD/svg11.dtd">
<!-- Generated by graphviz version 2.43.0 (0)
 -->
<!-- Title: RuntimeFlow Pages: 1 -->
<svg width="720pt" height="1013pt"
 viewBox="0.00 0.00 720.00 1013.00" xmlns="http://www.w3.org/2000/svg" xmlns:xlink="http://www.w3.org/1999/xlink">
<g id="graph0" class="graph" transform="scale(1 1) rotate(0) translate(4 1009)">
<title>RuntimeFlow</title>
<polygon fill="white" stroke="transparent" points="-4,4 -4,-1009 716,-1009 716,4 -4,4"/>
<text text-anchor="middle" x="356" y="-985" font-family="WenQuanYi Zen Hei" font-size="20.00">图2 &#160;系统运行流程图</text>
<g id="clust1" class="cluster">
<title>cluster_front</title>
<path fill="#eaf1fb" stroke="#2e75b6" d="M20,-304C20,-304 241,-304 241,-304 247,-304 253,-310 253,-316 253,-316 253,-955 253,-955 253,-961 247,-967 241,-967 241,-967 20,-967 20,-967 14,-967 8,-961 8,-955 8,-955 8,-316 8,-316 8,-310 14,-304 20,-304"/>
<text text-anchor="middle" x="94.5" y="-951.8" font-family="WenQuanYi Zen Hei" font-size="14.00">前端笔记本（采集发送）</text>
</g>
<g id="clust2" class="cluster">
<title>cluster_back</title>
<path fill="#eaf3e0" stroke="#548235" d="M273,-8C273,-8 585,-8 585,-8 591,-8 597,-14 597,-20 597,-20 597,-955 597,-955 597,-961 591,-967 585,-967 585,-967 273,-967 273,-967 267,-967 261,-961 261,-955 261,-955 261,-20 261,-20 261,-14 267,-8 273,-8"/>
<text text-anchor="middle" x="362" y="-951.8" font-family="WenQuanYi Zen Hei" font-size="14.00">后端笔记本（接收检测报警）</text>
</g>
<!-- f_start -->
<g id="node1" class="node">
<title>f_start</title>
<ellipse fill="#bdd7ee" stroke="black" cx="98" cy="-918" rx="27.9" ry="18"/>
<text text-anchor="middle" x="98" y="-915.3" font-family="WenQuanYi Zen Hei" font-size="11.50">开始</text>
</g>
<!-- f_open -->
<g id="node2" class="node">
<title>f_open</title>
<path fill="#cfe2f3" stroke="black" d="M132.5,-867C132.5,-867 63.5,-867 63.5,-867 57.5,-867 51.5,-861 51.5,-855 51.5,-855 51.5,-843 51.5,-843 51.5,-837 57.5,-831 63.5,-831 63.5,-831 132.5,-831 132.5,-831 138.5,-831 144.5,-837 144.5,-843 144.5,-843 144.5,-855 144.5,-855 144.5,-861 138.5,-867 132.5,-867"/>
<text text-anchor="middle" x="98" y="-852.8" font-family="WenQuanYi Zen Hei" font-size="11.50">打开摄像头</text>
<text text-anchor="middle" x="98" y="-839.8" font-family="WenQuanYi Zen Hei" font-size="11.50">建立 TCP 连接</text>
</g>
<!-- f_start&#45;&gt;f_open -->
<g id="edge1" class="edge">
<title>f_start&#45;&gt;f_open</title>
<path fill="none" stroke="#555555" d="M98,-899.75C98,-893 98,-885.09 98,-877.59"/>
<polygon fill="#555555" stroke="#555555" points="101.5,-877.43 98,-867.43 94.5,-877.43 101.5,-877.43"/>
</g>
<!-- f_camok -->
<g id="node3" class="node">
<title>f_camok</title>
<polygon fill="#ffe599" stroke="black" points="98,-798 24.53,-762 98,-726 171.47,-762 98,-798"/>
<text text-anchor="middle" x="98" y="-765.8" font-family="WenQuanYi Zen Hei" font-size="11.50">摄像头 / 连接</text>
<text text-anchor="middle" x="98" y="-752.8" font-family="WenQuanYi Zen Hei" font-size="11.50">成功？</text>
</g>
<!-- f_open&#45;&gt;f_camok -->
<g id="edge2" class="edge">
<title>f_open&#45;&gt;f_camok</title>
<path fill="none" stroke="#555555" d="M98,-830.8C98,-824.18 98,-816.28 98,-808.24"/>
<polygon fill="#555555" stroke="#555555" points="101.5,-808.08 98,-798.08 94.5,-808.08 101.5,-808.08"/>
</g>
<!-- f_err -->
<g id="node4" class="node">
<title>f_err</title>
<path fill="#f8cbad" stroke="black" d="M103.5,-682C103.5,-682 28.5,-682 28.5,-682 22.5,-682 16.5,-676 16.5,-670 16.5,-670 16.5,-658 16.5,-658 16.5,-652 22.5,-646 28.5,-646 28.5,-646 103.5,-646 103.5,-646 109.5,-646 115.5,-652 115.5,-658 115.5,-658 115.5,-670 115.5,-670 115.5,-676 109.5,-682 103.5,-682"/>
<text text-anchor="middle" x="66" y="-661.3" font-family="WenQuanYi Zen Hei" font-size="11.50">提示错误并退出</text>
</g>
<!-- f_camok&#45;&gt;f_err -->
<g id="edge3" class="edge">
<title>f_camok&#45;&gt;f_err</title>
<path fill="none" stroke="#555555" d="M87.96,-730.89C83.78,-718.34 78.97,-703.9 74.91,-691.74"/>
<polygon fill="#555555" stroke="#555555" points="78.2,-690.53 71.72,-682.15 71.56,-692.74 78.2,-690.53"/>
<text text-anchor="middle" x="86.5" y="-701.6" font-family="WenQuanYi Zen Hei" font-size="10.50">否</text>
</g>
<!-- f_read -->
<g id="node5" class="node">
<title>f_read</title>
<path fill="#cfe2f3" stroke="black" d="M217,-682C217,-682 153,-682 153,-682 147,-682 141,-676 141,-670 141,-670 141,-658 141,-658 141,-652 147,-646 153,-646 153,-646 217,-646 217,-646 223,-646 229,-652 229,-658 229,-658 229,-670 229,-670 229,-676 223,-682 217,-682"/>
<text text-anchor="middle" x="185" y="-661.3" font-family="WenQuanYi Zen Hei" font-size="11.50">读取一帧图像</text>
</g>
<!-- f_camok&#45;&gt;f_read -->
<g id="edge4" class="edge">
<title>f_camok&#45;&gt;f_read</title>
<path fill="none" stroke="#555555" d="M120.18,-736.53C133.18,-722.18 149.55,-704.12 162.59,-689.73"/>
<polygon fill="#555555" stroke="#555555" points="165.32,-691.92 169.45,-682.16 160.14,-687.22 165.32,-691.92"/>
<text text-anchor="middle" x="160.5" y="-701.6" font-family="WenQuanYi Zen Hei" font-size="10.50">是</text>
</g>
<!-- f_resize -->
<g id="node6" class="node">
<title>f_resize</title>
<path fill="#cfe2f3" stroke="black" d="M158,-613C158,-613 66,-613 66,-613 60,-613 54,-607 54,-601 54,-601 54,-589 54,-589 54,-583 60,-577 66,-577 66,-577 158,-577 158,-577 164,-577 170,-583 170,-589 170,-589 170,-601 170,-601 170,-607 164,-613 158,-613"/>
<text text-anchor="middle" x="112" y="-592.3" font-family="WenQuanYi Zen Hei" font-size="11.50">缩放到 640 像素宽</text>
</g>
<!-- f_read&#45;&gt;f_resize -->
<g id="edge5" class="edge">
<title>f_read&#45;&gt;f_resize</title>
<path fill="none" stroke="#555555" d="M166.2,-645.75C157.69,-637.93 147.47,-628.56 138.22,-620.07"/>
<polygon fill="#555555" stroke="#555555" points="140.47,-617.38 130.74,-613.2 135.74,-622.54 140.47,-617.38"/>
</g>
<!-- f_enc -->
<g id="node7" class="node">
<title>f_enc</title>
<path fill="#cfe2f3" stroke="black" d="M139.5,-544C139.5,-544 28.5,-544 28.5,-544 22.5,-544 16.5,-538 16.5,-532 16.5,-532 16.5,-520 16.5,-520 16.5,-514 22.5,-508 28.5,-508 28.5,-508 139.5,-508 139.5,-508 145.5,-508 151.5,-514 151.5,-520 151.5,-520 151.5,-532 151.5,-532 151.5,-538 145.5,-544 139.5,-544"/>
<text text-anchor="middle" x="84" y="-523.3" font-family="WenQuanYi Zen Hei" font-size="11.50">JPEG 编码（质量 80）</text>
</g>
<!-- f_resize&#45;&gt;f_enc -->
<g id="edge6" class="edge">
<title>f_resize&#45;&gt;f_enc</title>
<path fill="none" stroke="#555555" d="M104.79,-576.75C101.87,-569.77 98.44,-561.55 95.21,-553.82"/>
<polygon fill="#555555" stroke="#555555" points="98.37,-552.31 91.28,-544.43 91.91,-555 98.37,-552.31"/>
</g>
<!-- f_pack -->
<g id="node8" class="node">
<title>f_pack</title>
<path fill="#cfe2f3" stroke="black" d="M123,-446C123,-446 45,-446 45,-446 39,-446 33,-440 33,-434 33,-434 33,-422 33,-422 33,-416 39,-410 45,-410 45,-410 123,-410 123,-410 129,-410 135,-416 135,-422 135,-422 135,-434 135,-434 135,-440 129,-446 123,-446"/>
<text text-anchor="middle" x="84" y="-431.8" font-family="WenQuanYi Zen Hei" font-size="11.50">加帧号 + 时间戳</text>
<text text-anchor="middle" x="84" y="-418.8" font-family="WenQuanYi Zen Hei" font-size="11.50">NSGD 帧打包</text>
</g>
<!-- f_enc&#45;&gt;f_pack -->
<g id="edge7" class="edge">
<title>f_enc&#45;&gt;f_pack</title>
<path fill="none" stroke="#555555" d="M84,-507.84C84,-493.5 84,-472.81 84,-456.22"/>
<polygon fill="#555555" stroke="#555555" points="87.5,-456.01 84,-446.01 80.5,-456.01 87.5,-456.01"/>
</g>
<!-- f_send -->
<g id="node9" class="node">
<title>f_send</title>
<path fill="#cfe2f3" stroke="black" d="M138.5,-348C138.5,-348 29.5,-348 29.5,-348 23.5,-348 17.5,-342 17.5,-336 17.5,-336 17.5,-324 17.5,-324 17.5,-318 23.5,-312 29.5,-312 29.5,-312 138.5,-312 138.5,-312 144.5,-312 150.5,-318 150.5,-324 150.5,-324 150.5,-336 150.5,-336 150.5,-342 144.5,-348 138.5,-348"/>
<text text-anchor="middle" x="84" y="-327.3" font-family="WenQuanYi Zen Hei" font-size="11.50">TCP 发送（约 8 FPS）</text>
</g>
<!-- f_pack&#45;&gt;f_send -->
<g id="edge8" class="edge">
<title>f_pack&#45;&gt;f_send</title>
<path fill="none" stroke="#555555" d="M84,-409.84C84,-395.5 84,-374.81 84,-358.22"/>
<polygon fill="#555555" stroke="#555555" points="87.5,-358.01 84,-348.01 80.5,-358.01 87.5,-358.01"/>
</g>
<!-- f_send&#45;&gt;f_read -->
<g id="edge9" class="edge">
<title>f_send&#45;&gt;f_read</title>
<path fill="none" stroke="#2e75b6" stroke-dasharray="5,2" d="M107.94,-348.12C121.51,-359.12 137.61,-374.58 147,-392 190.25,-472.27 190.01,-584.49 187.18,-635.65"/>
<polygon fill="#2e75b6" stroke="#2e75b6" points="183.67,-635.68 186.53,-645.88 190.66,-636.13 183.67,-635.68"/>
<text text-anchor="middle" x="208.5" y="-523.6" font-family="WenQuanYi Zen Hei" font-size="10.50">循环采集</text>
</g>
<!-- b_header -->
<g id="node11" class="node">
<title>b_header</title>
<path fill="#d7e8c4" stroke="black" d="M407.5,-867C407.5,-867 322.5,-867 322.5,-867 316.5,-867 310.5,-861 310.5,-855 310.5,-855 310.5,-843 310.5,-843 310.5,-837 316.5,-831 322.5,-831 322.5,-831 407.5,-831 407.5,-831 413.5,-831 419.5,-837 419.5,-843 419.5,-843 419.5,-855 419.5,-855 419.5,-861 413.5,-867 407.5,-867"/>
<text text-anchor="middle" x="365" y="-846.3" font-family="WenQuanYi Zen Hei" font-size="11.50">读取 20 字节包头</text>
</g>
<!-- f_send&#45;&gt;b_header -->
<g id="edge26" class="edge">
<title>f_send&#45;&gt;b_header</title>
<path fill="none" stroke="#bf9000" stroke-width="1.6" d="M253,-347.55C255,-347.81 257,-348.06 259,-348.31"/>
<polygon fill="#bf9000" stroke="#bf9000" stroke-width="1.6" points="250.64,-350.78 261,-348.56 251.52,-343.84 250.64,-350.78"/>
<text text-anchor="middle" x="657.5" y="-592.6" font-family="WenQuanYi Zen Hei" font-size="10.50">无线局域网 TCP 字节流</text>
</g>
<!-- b_listen -->
<g id="node10" class="node">
<title>b_listen</title>
<path fill="#d7e8c4" stroke="black" d="M397,-936C397,-936 333,-936 333,-936 327,-936 321,-930 321,-924 321,-924 321,-912 321,-912 321,-906 327,-900 333,-900 333,-900 397,-900 397,-900 403,-900 409,-906 409,-912 409,-912 409,-924 409,-924 409,-930 403,-936 397,-936"/>
<text text-anchor="middle" x="365" y="-921.8" font-family="WenQuanYi Zen Hei" font-size="11.50">监听 5001</text>
<text text-anchor="middle" x="365" y="-908.8" font-family="WenQuanYi Zen Hei" font-size="11.50">接受前端连接</text>
</g>
<!-- b_listen&#45;&gt;b_header -->
<g id="edge10" class="edge">
<title>b_listen&#45;&gt;b_header</title>
<path fill="none" stroke="#555555" d="M365,-899.75C365,-893 365,-885.09 365,-877.59"/>
<polygon fill="#555555" stroke="#555555" points="368.5,-877.43 365,-867.43 361.5,-877.43 368.5,-877.43"/>
</g>
<!-- b_magic -->
<g id="node12" class="node">
<title>b_magic</title>
<polygon fill="#ffe599" stroke="black" points="365,-798 281.35,-762 365,-726 448.65,-762 365,-798"/>
<text text-anchor="middle" x="365" y="-759.3" font-family="WenQuanYi Zen Hei" font-size="11.50">magic == NSGD？</text>
</g>
<!-- b_header&#45;&gt;b_magic -->
<g id="edge11" class="edge">
<title>b_header&#45;&gt;b_magic</title>
<path fill="none" stroke="#555555" d="M365,-830.8C365,-824.18 365,-816.28 365,-808.24"/>
<polygon fill="#555555" stroke="#555555" points="368.5,-808.08 365,-798.08 361.5,-808.08 368.5,-808.08"/>
</g>
<!-- b_drop -->
<g id="node13" class="node">
<title>b_drop</title>
<path fill="#f8cbad" stroke="black" d="M392.5,-682C392.5,-682 281.5,-682 281.5,-682 275.5,-682 269.5,-676 269.5,-670 269.5,-670 269.5,-658 269.5,-658 269.5,-652 275.5,-646 281.5,-646 281.5,-646 392.5,-646 392.5,-646 398.5,-646 404.5,-652 404.5,-658 404.5,-658 404.5,-670 404.5,-670 404.5,-676 398.5,-682 392.5,-682"/>
<text text-anchor="middle" x="337" y="-661.3" font-family="WenQuanYi Zen Hei" font-size="11.50">丢弃该帧 / 报协议错误</text>
</g>
<!-- b_magic&#45;&gt;b_drop -->
<g id="edge12" class="edge">
<title>b_magic&#45;&gt;b_drop</title>
<path fill="none" stroke="#555555" d="M355.91,-729.83C352.33,-717.55 348.26,-703.59 344.81,-691.77"/>
<polygon fill="#555555" stroke="#555555" points="348.13,-690.66 341.97,-682.04 341.41,-692.62 348.13,-690.66"/>
<text text-anchor="middle" x="354.5" y="-701.6" font-family="WenQuanYi Zen Hei" font-size="10.50">否</text>
</g>
<!-- b_readimg -->
<g id="node14" class="node">
<title>b_readimg</title>
<path fill="#d7e8c4" stroke="black" d="M512.5,-682C512.5,-682 441.5,-682 441.5,-682 435.5,-682 429.5,-676 429.5,-670 429.5,-670 429.5,-658 429.5,-658 429.5,-652 435.5,-646 441.5,-646 441.5,-646 512.5,-646 512.5,-646 518.5,-646 524.5,-652 524.5,-658 524.5,-658 524.5,-670 524.5,-670 524.5,-676 518.5,-682 512.5,-682"/>
<text text-anchor="middle" x="477" y="-667.8" font-family="WenQuanYi Zen Hei" font-size="11.50">按 image_len</text>
<text text-anchor="middle" x="477" y="-654.8" font-family="WenQuanYi Zen Hei" font-size="11.50">读取完整 JPEG</text>
</g>
<!-- b_magic&#45;&gt;b_readimg -->
<g id="edge13" class="edge">
<title>b_magic&#45;&gt;b_readimg</title>
<path fill="none" stroke="#555555" d="M392.4,-737.52C409.54,-722.82 431.57,-703.94 448.85,-689.13"/>
<polygon fill="#555555" stroke="#555555" points="451.6,-691.39 456.91,-682.22 447.04,-686.07 451.6,-691.39"/>
<text text-anchor="middle" x="442.5" y="-701.6" font-family="WenQuanYi Zen Hei" font-size="10.50">是</text>
</g>
<!-- b_dec -->
<g id="node15" class="node">
<title>b_dec</title>
<path fill="#d7e8c4" stroke="black" d="M484,-613C484,-613 436,-613 436,-613 430,-613 424,-607 424,-601 424,-601 424,-589 424,-589 424,-583 430,-577 436,-577 436,-577 484,-577 484,-577 490,-577 496,-583 496,-589 496,-589 496,-601 496,-601 496,-607 490,-613 484,-613"/>
<text text-anchor="middle" x="460" y="-592.3" font-family="WenQuanYi Zen Hei" font-size="11.50">JPEG 解码</text>
</g>
<!-- b_readimg&#45;&gt;b_dec -->
<g id="edge14" class="edge">
<title>b_readimg&#45;&gt;b_dec</title>
<path fill="none" stroke="#555555" d="M472.62,-645.75C470.89,-638.92 468.86,-630.91 466.94,-623.34"/>
<polygon fill="#555555" stroke="#555555" points="470.27,-622.26 464.42,-613.43 463.49,-623.98 470.27,-622.26"/>
</g>
<!-- b_detect -->
<g id="node16" class="node">
<title>b_detect</title>
<path fill="#d7e8c4" stroke="black" d="M468.5,-544C468.5,-544 383.5,-544 383.5,-544 377.5,-544 371.5,-538 371.5,-532 371.5,-532 371.5,-520 371.5,-520 371.5,-514 377.5,-508 383.5,-508 383.5,-508 468.5,-508 468.5,-508 474.5,-508 480.5,-514 480.5,-520 480.5,-520 480.5,-532 480.5,-532 480.5,-538 474.5,-544 468.5,-544"/>
<text text-anchor="middle" x="426" y="-523.3" font-family="WenQuanYi Zen Hei" font-size="11.50">YOLOv8 六类检测</text>
</g>
<!-- b_dec&#45;&gt;b_detect -->
<g id="edge15" class="edge">
<title>b_dec&#45;&gt;b_detect</title>
<path fill="none" stroke="#555555" d="M451.24,-576.75C447.66,-569.69 443.44,-561.36 439.48,-553.56"/>
<polygon fill="#555555" stroke="#555555" points="442.49,-551.76 434.84,-544.43 436.25,-554.93 442.49,-551.76"/>
</g>
<!-- b_conf -->
<g id="node17" class="node">
<title>b_conf</title>
<polygon fill="#ffe599" stroke="black" points="405,-464 325.31,-428 405,-392 484.69,-428 405,-464"/>
<text text-anchor="middle" x="405" y="-425.3" font-family="WenQuanYi Zen Hei" font-size="11.50">置信度 ≥ 0.35？</text>
</g>
<!-- b_detect&#45;&gt;b_conf -->
<g id="edge16" class="edge">
<title>b_detect&#45;&gt;b_conf</title>
<path fill="none" stroke="#555555" d="M422.25,-507.84C420.01,-497.62 417.07,-484.18 414.25,-471.29"/>
<polygon fill="#555555" stroke="#555555" points="417.59,-470.17 412.03,-461.15 410.75,-471.67 417.59,-470.17"/>
</g>
<!-- b_ignore -->
<g id="node18" class="node">
<title>b_ignore</title>
<path fill="#e2e2e2" stroke="black" d="M372.5,-296C372.5,-296 285.5,-296 285.5,-296 279.5,-296 273.5,-290 273.5,-284 273.5,-284 273.5,-272 273.5,-272 273.5,-266 279.5,-260 285.5,-260 285.5,-260 372.5,-260 372.5,-260 378.5,-260 384.5,-266 384.5,-272 384.5,-272 384.5,-284 384.5,-284 384.5,-290 378.5,-296 372.5,-296"/>
<text text-anchor="middle" x="329" y="-275.3" font-family="WenQuanYi Zen Hei" font-size="11.50">忽略目标（灰框）</text>
</g>
<!-- b_conf&#45;&gt;b_ignore -->
<g id="edge17" class="edge">
<title>b_conf&#45;&gt;b_ignore</title>
<path fill="none" stroke="#555555" d="M385.22,-400.57C374.69,-385.67 362.08,-366.41 353,-348 346.4,-334.63 340.8,-318.99 336.67,-305.98"/>
<polygon fill="#555555" stroke="#555555" points="339.96,-304.75 333.69,-296.2 333.26,-306.79 339.96,-304.75"/>
<text text-anchor="middle" x="373.5" y="-367.6" font-family="WenQuanYi Zen Hei" font-size="10.50">否</text>
</g>
<!-- b_map -->
<g id="node19" class="node">
<title>b_map</title>
<path fill="#d7e8c4" stroke="black" d="M432.5,-348C432.5,-348 377.5,-348 377.5,-348 371.5,-348 365.5,-342 365.5,-336 365.5,-336 365.5,-324 365.5,-324 365.5,-318 371.5,-312 377.5,-312 377.5,-312 432.5,-312 432.5,-312 438.5,-312 444.5,-318 444.5,-324 444.5,-324 444.5,-336 444.5,-336 444.5,-342 438.5,-348 432.5,-348"/>
<text text-anchor="middle" x="405" y="-333.8" font-family="WenQuanYi Zen Hei" font-size="11.50">类别映射</text>
<text text-anchor="middle" x="405" y="-320.8" font-family="WenQuanYi Zen Hei" font-size="11.50">正常 / 异常</text>
</g>
<!-- b_conf&#45;&gt;b_map -->
<g id="edge18" class="edge">
<title>b_conf&#45;&gt;b_map</title>
<path fill="none" stroke="#555555" d="M405,-391.8C405,-380.76 405,-368.74 405,-358.33"/>
<polygon fill="#555555" stroke="#555555" points="408.5,-358.17 405,-348.17 401.5,-358.17 408.5,-358.17"/>
<text text-anchor="middle" x="410.5" y="-367.6" font-family="WenQuanYi Zen Hei" font-size="10.50">是</text>
</g>
<!-- b_show -->
<g id="node23" class="node">
<title>b_show</title>
<path fill="#d7e8c4" stroke="black" d="M398.5,-52C398.5,-52 323.5,-52 323.5,-52 317.5,-52 311.5,-46 311.5,-40 311.5,-40 311.5,-28 311.5,-28 311.5,-22 317.5,-16 323.5,-16 323.5,-16 398.5,-16 398.5,-16 404.5,-16 410.5,-22 410.5,-28 410.5,-28 410.5,-40 410.5,-40 410.5,-46 404.5,-52 398.5,-52"/>
<text text-anchor="middle" x="361" y="-37.8" font-family="WenQuanYi Zen Hei" font-size="11.50">绘制叠加并显示</text>
<text text-anchor="middle" x="361" y="-24.8" font-family="WenQuanYi Zen Hei" font-size="11.50">更新顶部状态栏</text>
</g>
<!-- b_ignore&#45;&gt;b_show -->
<g id="edge24" class="edge">
<title>b_ignore&#45;&gt;b_show</title>
<path fill="none" stroke="#555555" d="M317.3,-259.75C295.15,-224.78 252.06,-143.82 284,-85 290.12,-73.73 300,-64.6 310.68,-57.38"/>
<polygon fill="#555555" stroke="#555555" points="312.7,-60.25 319.35,-52 309.01,-54.3 312.7,-60.25"/>
</g>
<!-- b_alarmq -->
<g id="node20" class="node">
<title>b_alarmq</title>
<polygon fill="#ffe599" stroke="black" points="405,-244 331.24,-204.5 405,-165 478.76,-204.5 405,-244"/>
<text text-anchor="middle" x="405" y="-208.3" font-family="WenQuanYi Zen Hei" font-size="11.50">异常类别</text>
<text text-anchor="middle" x="405" y="-195.3" font-family="WenQuanYi Zen Hei" font-size="11.50">连续 ≥ 3 秒？</text>
</g>
<!-- b_map&#45;&gt;b_alarmq -->
<g id="edge19" class="edge">
<title>b_map&#45;&gt;b_alarmq</title>
<path fill="none" stroke="#555555" d="M405,-311.83C405,-296.92 405,-274.58 405,-254.22"/>
<polygon fill="#555555" stroke="#555555" points="408.5,-254.12 405,-244.12 401.5,-254.12 408.5,-254.12"/>
</g>
<!-- b_alarm -->
<g id="node21" class="node">
<title>b_alarm</title>
<path fill="#f8cbad" stroke="#c00000" d="M413.5,-121C413.5,-121 308.5,-121 308.5,-121 302.5,-121 296.5,-115 296.5,-109 296.5,-109 296.5,-97 296.5,-97 296.5,-91 302.5,-85 308.5,-85 308.5,-85 413.5,-85 413.5,-85 419.5,-85 425.5,-91 425.5,-97 425.5,-97 425.5,-109 425.5,-109 425.5,-115 419.5,-121 413.5,-121"/>
<text text-anchor="middle" x="361" y="-106.8" font-family="WenQuanYi Zen Hei" font-size="11.50">触发报警</text>
<text text-anchor="middle" x="361" y="-93.8" font-family="WenQuanYi Zen Hei" font-size="11.50">红框 + 截图 + 写 CSV</text>
</g>
<!-- b_alarmq&#45;&gt;b_alarm -->
<g id="edge20" class="edge">
<title>b_alarmq&#45;&gt;b_alarm</title>
<path fill="none" stroke="#555555" d="M385.65,-175.23C380.67,-167.04 375.68,-157.89 372,-149 369.64,-143.29 367.7,-136.95 366.15,-130.87"/>
<polygon fill="#555555" stroke="#555555" points="369.54,-130.02 363.89,-121.06 362.72,-131.59 369.54,-130.02"/>
<text text-anchor="middle" x="377.5" y="-140.6" font-family="WenQuanYi Zen Hei" font-size="10.50">是</text>
</g>
<!-- b_normal -->
<g id="node22" class="node">
<title>b_normal</title>
<path fill="#d7e8c4" stroke="black" d="M549.5,-121C549.5,-121 462.5,-121 462.5,-121 456.5,-121 450.5,-115 450.5,-109 450.5,-109 450.5,-97 450.5,-97 450.5,-91 456.5,-85 462.5,-85 462.5,-85 549.5,-85 549.5,-85 555.5,-85 561.5,-91 561.5,-97 561.5,-97 561.5,-109 561.5,-109 561.5,-115 555.5,-121 549.5,-121"/>
<text text-anchor="middle" x="506" y="-100.3" font-family="WenQuanYi Zen Hei" font-size="11.50">正常显示（绿框）</text>
</g>
<!-- b_alarmq&#45;&gt;b_normal -->
<g id="edge21" class="edge">
<title>b_alarmq&#45;&gt;b_normal</title>
<path fill="none" stroke="#555555" d="M430.49,-178.39C446.05,-163.05 465.87,-143.54 481.29,-128.34"/>
<polygon fill="#555555" stroke="#555555" points="483.8,-130.78 488.47,-121.27 478.89,-125.79 483.8,-130.78"/>
<text text-anchor="middle" x="475.5" y="-140.6" font-family="WenQuanYi Zen Hei" font-size="10.50">否</text>
</g>
<!-- b_alarm&#45;&gt;b_show -->
<g id="edge22" class="edge">
<title>b_alarm&#45;&gt;b_show</title>
<path fill="none" stroke="#555555" d="M361,-84.75C361,-78 361,-70.09 361,-62.59"/>
<polygon fill="#555555" stroke="#555555" points="364.5,-62.43 361,-52.43 357.5,-62.43 364.5,-62.43"/>
</g>
<!-- b_normal&#45;&gt;b_show -->
<g id="edge23" class="edge">
<title>b_normal&#45;&gt;b_show</title>
<path fill="none" stroke="#555555" d="M469.04,-84.92C450.2,-76.22 427.12,-65.55 407.13,-56.32"/>
<polygon fill="#555555" stroke="#555555" points="408.44,-53.07 397.9,-52.05 405.51,-59.42 408.44,-53.07"/>
</g>
<!-- b_show&#45;&gt;b_header -->
<g id="edge25" class="edge">
<title>b_show&#45;&gt;b_header</title>
<path fill="none" stroke="#548235" stroke-dasharray="5,2" d="M410.67,-39.63C467.11,-46.03 554.01,-59.77 574,-85 688,-228.85 484.66,-309.48 504,-492 514.68,-592.79 550.26,-637.55 537,-682 519.38,-741.06 506.7,-756.65 461,-798 448.54,-809.28 433.07,-818.78 418.21,-826.37"/>
<polygon fill="#548235" stroke="#548235" points="416.51,-823.3 409.07,-830.84 419.59,-829.59 416.51,-823.3"/>
<text text-anchor="middle" x="525.5" y="-483.6" font-family="WenQuanYi Zen Hei" font-size="10.50">循环接收</text>
</g>
</g>
</svg>
