<?xml version="1.0" encoding="UTF-8" standalone="no"?>
<!DOCTYPE svg PUBLIC "-//W3C//DTD SVG 1.1//EN"
 "http://www.w3.org/Graphics/SVG/1.1/DTD/svg11.dtd">
<!-- Generated by graphviz version 2.43.0 (0)
 -->
<!-- Title: SystemArchitecture Pages: 1 -->
<svg width="466pt" height="874pt"
 viewBox="0.00 0.00 466.00 874.00" xmlns="http://www.w3.org/2000/svg" xmlns:xlink="http://www.w3.org/1999/xlink">
<g id="graph0" class="graph" transform="scale(1 1) rotate(0) translate(4 870)">
<title>SystemArchitecture</title>
<polygon fill="white" stroke="transparent" points="-4,4 -4,-870 462,-870 462,4 -4,4"/>
<text text-anchor="middle" x="229" y="-848.4" font-family="WenQuanYi Zen Hei" font-size="17.00">图1 &#160;系统总体架构图</text>
<text text-anchor="middle" x="229" y="-829.4" font-family="WenQuanYi Zen Hei" font-size="17.00">（基于双机的实时图像远程监测与异常分析系统）</text>
<g id="clust1" class="cluster">
<title>cluster_front</title>
<path fill="#eaf1fb" stroke="#2e75b6" d="M20,-555C20,-555 206,-555 206,-555 212,-555 218,-561 218,-567 218,-567 218,-800 218,-800 218,-806 212,-812 206,-812 206,-812 20,-812 20,-812 14,-812 8,-806 8,-800 8,-800 8,-567 8,-567 8,-561 14,-555 20,-555"/>
<text text-anchor="middle" x="109.5" y="-797.2" font-family="WenQuanYi Zen Hei" font-size="13.50">前端笔记本（前端 PyQt6 GUI）</text>
</g>
<g id="clust2" class="cluster">
<title>cluster_back</title>
<path fill="#eaf3e0" stroke="#548235" d="M31,-8C31,-8 438,-8 438,-8 444,-8 450,-14 450,-20 450,-20 450,-429 450,-429 450,-435 444,-441 438,-441 438,-441 31,-441 31,-441 25,-441 19,-435 19,-429 19,-429 19,-20 19,-20 19,-14 25,-8 31,-8"/>
<text text-anchor="middle" x="120.5" y="-426.2" font-family="WenQuanYi Zen Hei" font-size="13.50">后端笔记本（后端 PyQt6 GUI）</text>
</g>
<!-- cam -->
<g id="node1" class="node">
<title>cam</title>
<path fill="#cfe2f3" stroke="black" stroke-width="1.3" d="M180,-781C180,-781 46,-781 46,-781 40,-781 34,-775 34,-769 34,-769 34,-751 34,-751 34,-745 40,-739 46,-739 46,-739 180,-739 180,-739 186,-739 192,-745 192,-751 192,-751 192,-769 192,-769 192,-775 186,-781 180,-781"/>
<text text-anchor="middle" x="113" y="-763.4" font-family="WenQuanYi Zen Hei" font-size="12.00">摄像头采集</text>
<text text-anchor="middle" x="113" y="-750.4" font-family="WenQuanYi Zen Hei" font-size="12.00">OpenCV VideoCapture</text>
</g>
<!-- fe_codec -->
<g id="node2" class="node">
<title>fe_codec</title>
<path fill="#cfe2f3" stroke="black" stroke-width="1.3" d="M197.5,-706C197.5,-706 28.5,-706 28.5,-706 22.5,-706 16.5,-700 16.5,-694 16.5,-694 16.5,-663 16.5,-663 16.5,-657 22.5,-651 28.5,-651 28.5,-651 197.5,-651 197.5,-651 203.5,-651 209.5,-657 209.5,-663 209.5,-663 209.5,-694 209.5,-694 209.5,-700 203.5,-706 197.5,-706"/>
<text text-anchor="middle" x="113" y="-688.4" font-family="WenQuanYi Zen Hei" font-size="12.00">图像缩放 + JPEG 编码</text>
<text text-anchor="middle" x="113" y="-675.4" font-family="WenQuanYi Zen Hei" font-size="12.00">image_codec</text>
<text text-anchor="middle" x="113" y="-662.4" font-family="WenQuanYi Zen Hei" font-size="12.00">resize_to_width / encode_jpeg</text>
</g>
<!-- cam&#45;&gt;fe_codec -->
<g id="edge1" class="edge">
<title>cam&#45;&gt;fe_codec</title>
<path fill="none" stroke="#555555" stroke-width="1.4" d="M113,-738.94C113,-732.03 113,-724.06 113,-716.25"/>
<polygon fill="#555555" stroke="#555555" stroke-width="1.4" points="116.5,-716.17 113,-706.17 109.5,-716.17 116.5,-716.17"/>
</g>
<!-- fe_pack -->
<g id="node3" class="node">
<title>fe_pack</title>
<path fill="#cfe2f3" stroke="black" stroke-width="1.3" d="M182,-618C182,-618 44,-618 44,-618 38,-618 32,-612 32,-606 32,-606 32,-575 32,-575 32,-569 38,-563 44,-563 44,-563 182,-563 182,-563 188,-563 194,-569 194,-575 194,-575 194,-606 194,-606 194,-612 188,-618 182,-618"/>
<text text-anchor="middle" x="113" y="-600.4" font-family="WenQuanYi Zen Hei" font-size="12.00">帧打包发送</text>
<text text-anchor="middle" x="113" y="-587.4" font-family="WenQuanYi Zen Hei" font-size="12.00">protocol.encode_packet</text>
<text text-anchor="middle" x="113" y="-574.4" font-family="WenQuanYi Zen Hei" font-size="12.00">640 宽 · 8 FPS · 质量 80</text>
</g>
<!-- fe_codec&#45;&gt;fe_pack -->
<g id="edge2" class="edge">
<title>fe_codec&#45;&gt;fe_pack</title>
<path fill="none" stroke="#555555" stroke-width="1.4" d="M113,-650.76C113,-643.64 113,-635.83 113,-628.27"/>
<polygon fill="#555555" stroke="#555555" stroke-width="1.4" points="116.5,-628.22 113,-618.22 109.5,-628.22 116.5,-628.22"/>
</g>
<!-- net -->
<g id="node4" class="node">
<title>net</title>
<polygon fill="#fff2cc" stroke="#bf9000" stroke-width="1.6" points="221,-519 5,-519 5,-477 221,-477 221,-519"/>
<text text-anchor="middle" x="113" y="-501.4" font-family="WenQuanYi Zen Hei" font-size="12.00">无线局域网 &#160;· &#160;TCP Socket</text>
<text text-anchor="middle" x="113" y="-488.4" font-family="WenQuanYi Zen Hei" font-size="12.00">NSGD 帧协议 &#160;· &#160;0.0.0.0 : 5001</text>
</g>
<!-- fe_pack&#45;&gt;net -->
<g id="edge9" class="edge">
<title>fe_pack&#45;&gt;net</title>
<path fill="none" stroke="#bf9000" stroke-width="1.7" d="M113,-562.84C113,-552.36 113,-540.27 113,-529.45"/>
<polygon fill="#bf9000" stroke="#bf9000" stroke-width="1.7" points="116.5,-529.16 113,-519.16 109.5,-529.16 116.5,-529.16"/>
<text text-anchor="middle" x="145" y="-538.2" font-family="WenQuanYi Zen Hei" font-size="11.00">发送 JPEG 帧</text>
</g>
<!-- be_recv -->
<g id="node5" class="node">
<title>be_recv</title>
<path fill="#d7e8c4" stroke="black" stroke-width="1.3" d="M180,-410C180,-410 46,-410 46,-410 40,-410 34,-404 34,-398 34,-398 34,-367 34,-367 34,-361 40,-355 46,-355 46,-355 180,-355 180,-355 186,-355 192,-361 192,-367 192,-367 192,-398 192,-398 192,-404 186,-410 180,-410"/>
<text text-anchor="middle" x="113" y="-392.4" font-family="WenQuanYi Zen Hei" font-size="12.00">接收与拆帧</text>
<text text-anchor="middle" x="113" y="-379.4" font-family="WenQuanYi Zen Hei" font-size="12.00">protocol.recv_packet</text>
<text text-anchor="middle" x="113" y="-366.4" font-family="WenQuanYi Zen Hei" font-size="12.00">按 image_len 读完整帧</text>
</g>
<!-- net&#45;&gt;be_recv -->
<g id="edge10" class="edge">
<title>net&#45;&gt;be_recv</title>
<path fill="none" stroke="#bf9000" stroke-width="1.7" d="M113,-476.97C113,-461.29 113,-439.06 113,-420.21"/>
<polygon fill="#bf9000" stroke="#bf9000" stroke-width="1.7" points="116.5,-420.15 113,-410.15 109.5,-420.15 116.5,-420.15"/>
<text text-anchor="middle" x="141.5" y="-452.2" font-family="WenQuanYi Zen Hei" font-size="11.00">接收字节流</text>
</g>
<!-- be_decode -->
<g id="node6" class="node">
<title>be_decode</title>
<path fill="#d7e8c4" stroke="black" stroke-width="1.3" d="M186.5,-322C186.5,-322 39.5,-322 39.5,-322 33.5,-322 27.5,-316 27.5,-310 27.5,-310 27.5,-292 27.5,-292 27.5,-286 33.5,-280 39.5,-280 39.5,-280 186.5,-280 186.5,-280 192.5,-280 198.5,-286 198.5,-292 198.5,-292 198.5,-310 198.5,-310 198.5,-316 192.5,-322 186.5,-322"/>
<text text-anchor="middle" x="113" y="-304.4" font-family="WenQuanYi Zen Hei" font-size="12.00">JPEG 解码</text>
<text text-anchor="middle" x="113" y="-291.4" font-family="WenQuanYi Zen Hei" font-size="12.00">image_codec.decode_jpeg</text>
</g>
<!-- be_recv&#45;&gt;be_decode -->
<g id="edge3" class="edge">
<title>be_recv&#45;&gt;be_decode</title>
<path fill="none" stroke="#555555" stroke-width="1.4" d="M113,-354.58C113,-347.36 113,-339.5 113,-332.11"/>
<polygon fill="#555555" stroke="#555555" stroke-width="1.4" points="116.5,-332.1 113,-322.1 109.5,-332.1 116.5,-332.1"/>
</g>
<!-- be_yolo -->
<g id="node7" class="node">
<title>be_yolo</title>
<path fill="#d7e8c4" stroke="black" stroke-width="1.3" d="M182,-247C182,-247 48,-247 48,-247 42,-247 36,-241 36,-235 36,-235 36,-204 36,-204 36,-198 42,-192 48,-192 48,-192 182,-192 182,-192 188,-192 194,-198 194,-204 194,-204 194,-235 194,-235 194,-241 188,-247 182,-247"/>
<text text-anchor="middle" x="115" y="-229.4" font-family="WenQuanYi Zen Hei" font-size="12.00">YOLOv8 检测</text>
<text text-anchor="middle" x="115" y="-216.4" font-family="WenQuanYi Zen Hei" font-size="12.00">YoloDetector</text>
<text text-anchor="middle" x="115" y="-203.4" font-family="WenQuanYi Zen Hei" font-size="12.00">conf=0.25 · imgsz=640</text>
</g>
<!-- be_decode&#45;&gt;be_yolo -->
<g id="edge4" class="edge">
<title>be_decode&#45;&gt;be_yolo</title>
<path fill="none" stroke="#555555" stroke-width="1.4" d="M113.5,-279.94C113.68,-273.03 113.88,-265.06 114.08,-257.25"/>
<polygon fill="#555555" stroke="#555555" stroke-width="1.4" points="117.58,-257.25 114.33,-247.17 110.58,-257.07 117.58,-257.25"/>
</g>
<!-- be_qwen -->
<g id="node10" class="node">
<title>be_qwen</title>
<path fill="#e6d7f0" stroke="#7030a0" stroke-width="1.3" stroke-dasharray="5,2" d="M429.5,-322C429.5,-322 274.5,-322 274.5,-322 268.5,-322 262.5,-316 262.5,-310 262.5,-310 262.5,-292 262.5,-292 262.5,-286 268.5,-280 274.5,-280 274.5,-280 429.5,-280 429.5,-280 435.5,-280 441.5,-286 441.5,-292 441.5,-292 441.5,-310 441.5,-310 441.5,-316 435.5,-322 429.5,-322"/>
<text text-anchor="middle" x="352" y="-304.4" font-family="WenQuanYi Zen Hei" font-size="12.00">（可选）千问视觉辅助</text>
<text text-anchor="middle" x="352" y="-291.4" font-family="WenQuanYi Zen Hei" font-size="12.00">qwen_analysis · DashScope</text>
</g>
<!-- be_decode&#45;&gt;be_qwen -->
<g id="edge7" class="edge">
<title>be_decode&#45;&gt;be_qwen</title>
<path fill="none" stroke="#7030a0" stroke-width="1.4" stroke-dasharray="5,2" d="M198.61,-301C215.85,-301 234.12,-301 251.81,-301"/>
<polygon fill="#7030a0" stroke="#7030a0" stroke-width="1.4" points="252.15,-304.5 262.15,-301 252.15,-297.5 252.15,-304.5"/>
<text text-anchor="middle" x="230.5" y="-307.2" font-family="WenQuanYi Zen Hei" font-size="11.00">抽帧</text>
</g>
<!-- be_analyze -->
<g id="node8" class="node">
<title>be_analyze</title>
<path fill="#d7e8c4" stroke="black" stroke-width="1.3" d="M194.5,-159C194.5,-159 39.5,-159 39.5,-159 33.5,-159 27.5,-153 27.5,-147 27.5,-147 27.5,-116 27.5,-116 27.5,-110 33.5,-104 39.5,-104 39.5,-104 194.5,-104 194.5,-104 200.5,-104 206.5,-110 206.5,-116 206.5,-116 206.5,-147 206.5,-147 206.5,-153 200.5,-159 194.5,-159"/>
<text text-anchor="middle" x="117" y="-141.4" font-family="WenQuanYi Zen Hei" font-size="12.00">行为分析</text>
<text text-anchor="middle" x="117" y="-128.4" font-family="WenQuanYi Zen Hei" font-size="12.00">behaviour_analyzer</text>
<text text-anchor="middle" x="117" y="-115.4" font-family="WenQuanYi Zen Hei" font-size="12.00">目标级状态 + 连续 3 秒判定</text>
</g>
<!-- be_yolo&#45;&gt;be_analyze -->
<g id="edge5" class="edge">
<title>be_yolo&#45;&gt;be_analyze</title>
<path fill="none" stroke="#555555" stroke-width="1.4" d="M115.62,-191.76C115.79,-184.64 115.97,-176.83 116.14,-169.27"/>
<polygon fill="#555555" stroke="#555555" stroke-width="1.4" points="119.64,-169.3 116.38,-159.22 112.65,-169.14 119.64,-169.3"/>
</g>
<!-- be_overlay -->
<g id="node9" class="node">
<title>be_overlay</title>
<path fill="#d7e8c4" stroke="black" stroke-width="1.3" d="M191.5,-71C191.5,-71 42.5,-71 42.5,-71 36.5,-71 30.5,-65 30.5,-59 30.5,-59 30.5,-28 30.5,-28 30.5,-22 36.5,-16 42.5,-16 42.5,-16 191.5,-16 191.5,-16 197.5,-16 203.5,-22 203.5,-28 203.5,-28 203.5,-59 203.5,-59 203.5,-65 197.5,-71 191.5,-71"/>
<text text-anchor="middle" x="117" y="-53.4" font-family="WenQuanYi Zen Hei" font-size="12.00">可视化显示</text>
<text text-anchor="middle" x="117" y="-40.4" font-family="WenQuanYi Zen Hei" font-size="12.00">draw_overlay + 顶部状态栏</text>
<text text-anchor="middle" x="117" y="-27.4" font-family="WenQuanYi Zen Hei" font-size="12.00">正常绿框 / 异常红框</text>
</g>
<!-- be_analyze&#45;&gt;be_overlay -->
<g id="edge6" class="edge">
<title>be_analyze&#45;&gt;be_overlay</title>
<path fill="none" stroke="#555555" stroke-width="1.4" d="M117,-103.76C117,-96.64 117,-88.83 117,-81.27"/>
<polygon fill="#555555" stroke="#555555" stroke-width="1.4" points="120.5,-81.22 117,-71.22 113.5,-81.22 120.5,-81.22"/>
</g>
<!-- be_alarm -->
<g id="node11" class="node">
<title>be_alarm</title>
<path fill="#f8cbad" stroke="#c00000" stroke-width="1.3" d="M430,-159C430,-159 296,-159 296,-159 290,-159 284,-153 284,-147 284,-147 284,-116 284,-116 284,-110 290,-104 296,-104 296,-104 430,-104 430,-104 436,-104 442,-110 442,-116 442,-116 442,-147 442,-147 442,-153 436,-159 430,-159"/>
<text text-anchor="middle" x="363" y="-141.4" font-family="WenQuanYi Zen Hei" font-size="12.00">报警记录</text>
<text text-anchor="middle" x="363" y="-128.4" font-family="WenQuanYi Zen Hei" font-size="12.00">output/alarms</text>
<text text-anchor="middle" x="363" y="-115.4" font-family="WenQuanYi Zen Hei" font-size="12.00">alarms.csv + 截图 jpg</text>
</g>
<!-- be_analyze&#45;&gt;be_alarm -->
<g id="edge8" class="edge">
<title>be_analyze&#45;&gt;be_alarm</title>
<path fill="none" stroke="#c00000" stroke-width="1.4" d="M206.51,-131.5C228.33,-131.5 251.67,-131.5 273.49,-131.5"/>
<polygon fill="#c00000" stroke="#c00000" stroke-width="1.4" points="273.74,-135 283.74,-131.5 273.74,-128 273.74,-135"/>
<text text-anchor="middle" x="245.25" y="-137.7" font-family="WenQuanYi Zen Hei" font-size="11.00">异常报警</text>
</g>
</g>
</svg>
